Coordinates
version=1
nRows=29
nColumns=24
inDegrees=yes

Units are S.I. units (second, meters, Newtons, ...)
Angles are in degrees.

endheader
time	pelvis_tilt	pelvis_list	pelvis_rotation	pelvis_tx	pelvis_ty	pelvis_tz	hip_flexion_r	hip_adduction_r	hip_rotation_r	knee_angle_r	ankle_angle_r	subtalar_angle_r	mtp_angle_r	hip_flexion_l	hip_adduction_l	hip_rotation_l	knee_angle_l	ankle_angle_l	subtalar_angle_l	mtp_angle_l	lumbar_extension	lumbar_bending	lumbar_rotation
      0.45800000	     -6.11064440	     -1.38313483	      1.63913582	     -0.75499058	      1.04054484	      0.29330965	     32.36280967	      0.47322086	     -7.41873361	    -16.85324270	      6.82500911	      0.48571868	      5.25058804	     -8.05391884	     -1.37953937	      2.15424785	    -11.60624430	     22.31862698	      6.44483179	      1.00399293	     -4.66798215	      1.86241626	     -3.76268459
      0.46216667	     -6.04211263	     -1.35013106	      1.72237710	     -0.74894288	      1.03938131	      0.29349099	     32.27336163	      0.47038493	     -7.13409967	    -16.79007794	      6.70552742	      0.18355288	      5.24142261	     -8.26742429	     -1.38557821	      2.10184002	    -12.07408998	     22.44982060	      6.61464126	      1.03665388	     -4.72486256	      1.87643076	     -3.80145262
      0.46633333	     -6.01356681	     -1.31402119	      1.79688268	     -0.74283520	      1.03816237	      0.29371066	     32.23681868	      0.46859255	     -6.85286938	    -16.84064998	      6.58320598	     -0.13238402	      5.22885979	     -8.39830099	     -1.39663332	      1.96133851	    -12.63002029	     22.60496941	      6.89290333	      1.11168561	     -4.71828792	      1.88780568	     -3.82840223
      0.47050000	     -5.90689798	     -1.29746235	      1.87845872	     -0.73671109	      1.03711998	      0.29390864	     32.11331205	      0.48366275	     -6.60546647	    -16.97061736	      6.46987204	     -0.43843913	      5.21560029	     -8.60279690	     -1.43484515	      1.83237260	    -13.20897119	     22.72592116	      7.18360497	      1.21415183	     -4.81594616	      1.93218033	     -3.85755966
      0.47466667	     -5.83153072	     -1.27604815	      1.95373930	     -0.73054082	      1.03605139	      0.29413405	     32.02970684	      0.49960529	     -6.34878569	    -17.19544753	      6.34267148	     -0.79857205	      5.19965120	     -8.74671190	     -1.47281512	      1.66806039	    -13.84607110	     22.83414470	      7.51869433	      1.35700172	     -4.86151452	      1.96886541	     -3.88434778
      0.47883333	     -5.74220076	     -1.26174296	      2.02893810	     -0.72434850	      1.03503149	      0.29436175	     31.93850915	      0.52192010	     -6.11665597	    -17.51287275	      6.21681072	     -1.13819473	      5.18323214	     -8.87995432	     -1.52486621	      1.48901884	    -14.54275153	     22.92036497	      7.87630408	      1.54240019	     -4.92773072	      2.02457606	     -3.90417034
      0.48300000	     -5.63009530	     -1.25540139	      2.10023364	     -0.71812075	      1.03409481	      0.29460669	     31.82363700	      0.55648894	     -5.90505692	    -17.89933100	      6.07653833	     -1.51199639	      5.16463695	     -9.01226144	     -1.59289828	      1.27845364	    -15.29166750	     22.97999937	      8.25515622	      1.77899822	     -5.00641140	      2.08341484	     -3.92015509
      0.48716667	     -5.52801698	     -1.24855000	      2.16269980	     -0.71186556	      1.03318024	      0.29488457	     31.72229305	      0.59705260	     -5.69359294	    -18.35254624	      5.93046126	     -1.89519506	      5.14465288	     -9.10114023	     -1.66680030	      1.03800659	    -16.10861647	     23.00542871	      8.67233998	      2.06853702	     -5.07016608	      2.14588903	     -3.93536781
      0.49133333	     -5.40685426	     -1.25183586	      2.22123933	     -0.70559658	      1.03233145	      0.29518265	     31.60597779	      0.65108622	     -5.49932991	    -18.87175044	      5.77497784	     -2.28241636	      5.12118327	     -9.18806542	     -1.76035247	      0.78081696	    -16.97367471	     23.00288582	      9.12397801	      2.43057404	     -5.16038339	      2.23500040	     -3.93267252
      0.49550000	     -5.28521881	     -1.24374547	      2.28588084	     -0.69932221	      1.03153351	      0.29547878	     31.49907387	      0.68689769	     -5.34469661	    -19.46295409	      5.65837215	     -2.60233383	      4.91837884	     -9.24263323	     -1.84579815	      0.54805997	    -17.89113983	     22.87160776	      9.47869043	      6.21360737	     -5.25043542	      2.29641311	     -3.91918315
      0.49966667	     -5.16762167	     -1.24417068	      2.32997659	     -0.69303352	      1.03077482	      0.29584514	     31.39262115	      0.75177659	     -5.13944384	    -20.08123848	      5.50102288	     -3.02650356	      4.90725151	     -9.26103850	     -1.94832737	      0.26801160	    -18.88434991	     22.76363526	      9.90832699	      6.28831283	     -5.32638840	      2.37200984	     -3.92264663
      0.50383333	     -5.04036295	     -1.24977819	      2.37177102	     -0.68674652	      1.03007583	      0.29622504	     31.28453709	      0.81987471	     -4.96939849	    -20.75291393	      5.37043268	     -3.40347681	      4.89058354	     -9.25001715	     -2.06745476	     -0.04002078	    -19.95051464	     22.62856049	     10.39475985	      6.43669954	     -5.41871019	      2.45849671	     -3.89770384
      0.50800000	     -4.90125159	     -1.25944847	      2.40628912	     -0.68046895	      1.02943618	      0.29664127	     31.16698041	      0.89812214	     -4.79955555	    -21.45733458	      5.25874562	     -3.77311558	      4.86585613	     -9.21845789	     -2.20153699	     -0.37224855	    -21.08230276	     22.44107703	     10.88576662	      6.64345032	     -5.52579976	      2.54656903	     -3.87014699
      0.51216667	     -4.77741722	     -1.26853080	      2.43326186	     -0.67418922	      1.02882672	      0.29708793	     31.07124225	      0.97885116	     -4.63930686	    -22.19812463	      5.17458818	     -4.12346213	      4.83105531	     -9.13363844	     -2.34252397	     -0.71307847	    -22.27618643	     22.19517352	     11.38354427	      6.92099810	     -5.61003081	      2.63607750	     -3.82853150
      0.51633333	     -4.66463269	     -1.28221424	      2.45796266	     -0.66791405	      1.02825814	      0.29755732	     30.98735358	      1.06618824	     -4.48354896	    -22.95864976	      5.11751880	     -4.47205901	      4.78408480	     -8.99825074	     -2.49746966	     -1.05441600	    -23.53999682	     21.88171872	     11.86994213	      7.26565549	     -5.68097204	      2.73047114	     -3.78490233
      0.52050000	     -4.50012182	     -1.30812096	      2.46486699	     -0.66166172	      1.02784702	      0.29807846	     30.83780351	      1.18573399	     -4.28717433	    -23.71203789	      5.12784393	     -4.86009653	      4.18901921	     -8.90222381	     -2.67024521	     -1.38498489	    -24.81307959	     21.36803923	     12.22830441	     11.46381723	     -5.83149678	      2.85839953	     -3.71100827
      0.52466667	     -4.42712773	     -1.29947137	      2.48796854	     -0.65543192	      1.02731063	      0.29856750	     30.81253834	      1.23875297	     -4.18989384	    -24.53665847	      5.17606097	     -5.04059486	      4.17691882	     -8.64479592	     -2.81217260	     -1.69540494	    -26.20809169	     20.93060914	     12.67233128	     11.55216651	     -5.84963894	      2.90893324	     -3.67861572
      0.52883333	     -4.30794765	     -1.32321964	      2.49214426	     -0.64922095	      1.02691796	      0.29911982	     30.71465482	      1.34831686	     -4.04575486	    -25.31771040	      5.24918960	     -5.31310843	      4.14724102	     -8.41000525	     -3.00299825	     -2.04168433	    -27.64516098	     20.41587250	     13.11437505	     11.70740896	     -5.93804126	      3.01792637	     -3.61309991
      0.53300000	     -4.20929797	     -1.34361525	      2.49165727	     -0.64302328	      1.02655774	      0.29968505	     30.63155049	      1.45476974	     -3.90519439	    -26.09401822	      5.37851693	     -5.54894526	      4.10534901	     -8.11693202	     -3.19583208	     -2.37784558	    -29.13431850	     19.81092855	     13.51010509	     11.90803746	     -5.99888591	      3.11654023	     -3.54703130
      0.53716667	     -4.10521209	     -1.36727055	      2.48586785	     -0.63685838	      1.02626539	      0.30026212	     30.53105641	      1.56685179	     -3.77373594	    -26.85163789	      5.55775024	     -5.75249611	      4.05258413	     -7.79732952	     -3.39640856	     -2.69467705	    -30.67282455	     19.13449883	     13.85897176	     12.14330002	     -6.06874394	      3.22227702	     -3.47463136
      0.54133333	     -3.98528681	     -1.39334500	      2.48956750	     -0.63073716	      1.02608706	      0.30081763	     30.39373267	      1.67630343	     -3.65855362	    -27.57477748	      5.77342662	     -5.93913084	      3.03092966	     -7.46264539	     -3.60159806	     -2.95904640	    -32.22789213	     18.29052298	     14.08856574	     16.15009752	     -6.17308503	      3.33766458	     -3.36869117
      0.54550000	     -3.89233396	     -1.42432510	      2.47096609	     -0.62461474	      1.02590572	      0.30140370	     30.27391997	      1.79603605	     -3.54707374	    -28.27975784	      6.07122804	     -6.04935151	      3.02798369	     -7.07244464	     -3.81451547	     -3.24368324	    -33.83764058	     17.49474194	     14.31338142	     16.17798886	     -6.22901237	      3.45953306	     -3.31610720
      0.54966667	     -3.79548658	     -1.45986945	      2.46468337	     -0.61853705	      1.02582983	      0.30196049	     30.11790976	      1.91585653	     -3.43878982	    -28.92100426	      6.38362845	     -6.16215065	      3.01760976	     -6.65391572	     -4.03083475	     -3.47037243	    -35.47135152	     16.59499799	     14.47123850	     16.21488095	     -6.30600242	      3.58982730	     -3.24270454
      0.55383333	     -3.71465367	     -1.49994886	      2.44663801	     -0.61249561	      1.02575702	      0.30252592	     29.97170071	      2.03605128	     -3.37114778	    -29.54532246	      6.71225302	     -6.24238410	      2.98867054	     -6.18609229	     -4.26047961	     -3.72297190	    -37.15336381	     15.72153346	     14.61698159	     16.28465240	     -6.35518369	      3.71672060	     -3.14840218
      0.55800000	     -3.62747249	     -1.54324820	      2.43221040	     -0.60649462	      1.02578392	      0.30307122	     29.78771159	      2.15759433	     -3.30140911	    -30.10921780	      7.08310546	     -6.29537184	      2.94118033	     -5.69972230	     -4.49036128	     -3.93399719	    -38.84449829	     14.78616909	     14.68787405	     16.37270101	     -6.42210110	      3.85540033	     -3.04941879
      0.56216667	     -3.53001482	     -1.59039370	      2.41708495	     -0.60053512	      1.02589658	      0.30359342	     29.56693545	      2.27898084	     -3.24925382	    -30.61994416	      7.48008452	     -6.31157508	      2.89132542	     -5.20558937	     -4.71872621	     -4.11225884	    -40.54335772	     13.80766326	     14.65258132	     16.44145027	     -6.50136504	      3.99205985	     -2.95755848
      0.56633333	     -3.45118446	     -1.63746846	      2.40557783	     -0.59460936	      1.02606018	      0.30409041	     29.34081112	      2.39427337	     -3.20828732	    -31.08109540	      7.90116583	     -6.31092583	      2.82611254	     -4.66791484	     -4.94051978	     -4.25675923	    -42.24693170	     12.83679854	     14.56081897	     16.49992282	     -6.56265364	      4.13506857	     -2.85691847
      0.57050000	     -3.36192687	     -1.68707763	      2.39706374	     -0.58872927	      1.02631226	      0.30455919	     29.07709329	      2.50666579	     -3.18374972	    -31.48612044	      8.33645530	     -6.28600659	      2.76178519	     -4.12311830	     -5.15926196	     -4.37526055	    -43.94712958	     11.87378519	     14.39197051	     16.52414915	     -6.64134068	      4.27966592	     -2.76170877
      0.57466667	     -3.27084676	     -1.74560265	      2.39550936	     -0.58288250	      1.02666216	      0.30501577	     28.77697444	      2.62929925	     -3.14836814	    -31.82022235	      8.77802890	     -6.29080940	      2.72984804	     -3.56088269	     -5.38596320	     -4.47178446	    -45.63551669	     10.91631562	     14.20083199	     16.51182153	     -6.72765502	      4.43212972	     -2.67847255
